<?xml version="1.0" encoding="utf-8"?>
<svg viewBox="0 0 234 34.6" width="234px" height="34.6px" xmlns="http://www.w3.org/2000/svg">
  <g>
    <g id="SvgjsG2382" transform="matrix(2, 0, 0, 2, 0, -19)" fill="currentColor">
      <g transform="translate(-270 -140)" id="g11">
        <g id="g9">
          <path d="M279,161c-0.736,0-1.375,0.405-1.722,1c-0.172,0.295-0.278,0.635-0.278,1c0,1.102,0.897,2,2,2c1.103,0,2-0.898,2-2c0-0.365-0.105-0.705-0.278-1C280.375,161.405,279.737,161,279,161z" id="path3"/>
          <path d="M293,161c-0.736,0-1.375,0.405-1.722,1c-0.172,0.295-0.278,0.635-0.278,1c0,1.102,0.897,2,2,2c1.103,0,2-0.898,2-2c0-0.365-0.105-0.705-0.278-1C294.375,161.405,293.737,161,293,161z" id="path5"/>
          <path d="M299,159v-1l-6-1.715L286,152h-11v1h6v1h-11v1h12v1h-10v1h5v1h-2v1h-4v1h5v1h-1v1h-3v1h4c0-0.352,0.072-0.686,0.184-1c0.414-1.162,1.512-2,2.816-2c1.305,0,2.402,0.838,2.816,2c0.111,0.314,0.184,0.648,0.184,1h8c0-0.352,0.072-0.686,0.184-1c0.414-1.162,1.512-2,2.816-2c1.305,0,2.402,0.838,2.816,2c0.111,0.314,0.184,0.648,0.184,1h3v-1h1v-3H299z" id="path7"/>
        </g>
      </g>
    </g>
    <g id="SvgjsG2383" fill="currentColor">
      <path d="M 74.053 16.949 Q 74.053 14.414 74.989 11.976 Q 75.925 9.539 77.719 7.55 Q 79.513 5.561 82.087 4.371 Q 84.661 3.182 87.937 3.182 Q 91.837 3.182 94.704 4.859 Q 97.57 6.536 98.974 9.227 L 94.06 12.659 Q 93.436 11.177 92.403 10.358 Q 91.369 9.539 90.141 9.207 Q 88.912 8.876 87.781 8.876 Q 85.948 8.876 84.583 9.597 Q 83.218 10.319 82.321 11.528 Q 81.424 12.737 80.995 14.219 Q 80.566 15.701 80.566 17.183 Q 80.566 18.821 81.073 20.342 Q 81.58 21.863 82.536 23.033 Q 83.491 24.203 84.856 24.885 Q 86.221 25.568 87.859 25.568 Q 89.029 25.568 90.238 25.178 Q 91.447 24.788 92.481 23.949 Q 93.514 23.111 94.06 21.746 L 99.286 24.827 Q 98.467 26.855 96.595 28.298 Q 94.723 29.741 92.364 30.501 Q 90.004 31.262 87.703 31.262 Q 84.7 31.262 82.185 30.033 Q 79.669 28.805 77.856 26.757 Q 76.042 24.71 75.048 22.155 Q 74.053 19.601 74.053 16.949 Z M 100.688 24.905 Q 100.688 22.877 101.819 21.356 Q 102.95 19.835 104.939 18.957 Q 106.928 18.08 109.502 18.08 Q 110.75 18.08 111.959 18.294 Q 113.168 18.509 114.065 18.899 L 114.065 18.002 Q 114.065 16.325 113.051 15.428 Q 112.037 14.531 109.97 14.531 Q 108.254 14.531 106.752 15.116 Q 105.251 15.701 103.574 16.793 L 101.702 12.815 Q 103.73 11.489 105.933 10.826 Q 108.137 10.163 110.594 10.163 Q 115.196 10.163 117.75 12.366 Q 120.305 14.57 120.305 18.743 L 120.305 24.086 Q 120.305 25.022 120.597 25.392 Q 120.89 25.763 121.631 25.841 L 121.631 31.028 Q 120.851 31.184 120.168 31.262 Q 119.486 31.34 118.979 31.34 Q 117.224 31.34 116.307 30.638 Q 115.391 29.936 115.157 28.727 L 115.04 27.83 Q 113.675 29.585 111.783 30.501 Q 109.892 31.418 107.825 31.418 Q 105.797 31.418 104.178 30.56 Q 102.56 29.702 101.624 28.22 Q 100.688 26.738 100.688 24.905 Z M 113.09 25.685 Q 113.519 25.334 113.792 24.905 Q 114.065 24.476 114.065 24.086 L 114.065 22.253 Q 113.285 21.941 112.329 21.765 Q 111.374 21.59 110.555 21.59 Q 108.839 21.59 107.708 22.35 Q 106.577 23.111 106.577 24.359 Q 106.577 25.061 106.967 25.646 Q 107.357 26.231 108.039 26.582 Q 108.722 26.933 109.658 26.933 Q 110.594 26.933 111.53 26.582 Q 112.466 26.231 113.09 25.685 Z M 138.594 31.028 L 133.251 22.838 L 131.067 25.061 L 131.067 31.028 L 124.827 31.028 L 124.827 2.558 L 131.067 2.558 L 131.067 19.016 L 138.009 10.553 L 144.6 10.553 L 137.229 19.367 L 145.224 31.028 Z M 147.523 31.028 L 147.523 3.338 L 160.003 3.338 Q 161.953 3.338 163.611 4.137 Q 165.268 4.937 166.477 6.282 Q 167.686 7.628 168.369 9.305 Q 169.051 10.982 169.051 12.698 Q 169.051 14.414 168.505 15.954 Q 167.959 17.495 166.945 18.723 Q 165.931 19.952 164.527 20.732 L 170.611 31.028 L 163.552 31.028 L 158.248 22.097 L 153.919 22.097 L 153.919 31.028 Z M 153.919 16.52 L 159.769 16.52 Q 160.549 16.52 161.154 16.032 Q 161.758 15.545 162.148 14.687 Q 162.538 13.829 162.538 12.698 Q 162.538 11.567 162.09 10.728 Q 161.641 9.89 160.978 9.422 Q 160.315 8.954 159.574 8.954 L 153.919 8.954 Z M 182.234 31.418 Q 179.621 31.418 177.593 30.579 Q 175.565 29.741 174.141 28.298 Q 172.718 26.855 171.977 24.963 Q 171.236 23.072 171.236 21.005 Q 171.236 18.041 172.542 15.603 Q 173.849 13.166 176.306 11.664 Q 178.763 10.163 182.234 10.163 Q 185.705 10.163 188.142 11.645 Q 190.58 13.127 191.867 15.525 Q 193.154 17.924 193.154 20.732 Q 193.154 21.278 193.095 21.804 Q 193.037 22.331 192.998 22.721 L 177.866 22.721 Q 177.983 24.086 178.626 25.022 Q 179.27 25.958 180.284 26.445 Q 181.298 26.933 182.429 26.933 Q 183.833 26.933 185.061 26.27 Q 186.29 25.607 186.758 24.476 L 192.062 25.958 Q 191.282 27.557 189.858 28.785 Q 188.435 30.014 186.504 30.716 Q 184.574 31.418 182.234 31.418 Z M 177.71 18.899 L 186.602 18.899 Q 186.446 17.612 185.861 16.656 Q 185.276 15.701 184.301 15.174 Q 183.326 14.648 182.156 14.648 Q 180.947 14.648 179.991 15.174 Q 179.036 15.701 178.451 16.656 Q 177.866 17.612 177.71 18.899 Z M 215.732 31.028 L 209.492 31.028 L 209.492 19.523 Q 209.492 17.495 208.731 16.578 Q 207.971 15.662 206.723 15.662 Q 205.865 15.662 204.968 16.13 Q 204.071 16.598 203.349 17.417 Q 202.628 18.236 202.238 19.289 L 202.238 31.028 L 195.998 31.028 L 195.998 10.553 L 201.614 10.553 L 201.614 13.985 Q 202.394 12.776 203.564 11.918 Q 204.734 11.06 206.255 10.611 Q 207.776 10.163 209.57 10.163 Q 211.559 10.163 212.787 10.884 Q 214.016 11.606 214.659 12.776 Q 215.303 13.946 215.517 15.291 Q 215.732 16.637 215.732 17.924 Z M 233.085 29.936 Q 232.227 30.287 231.194 30.638 Q 230.16 30.989 229.029 31.203 Q 227.898 31.418 226.806 31.418 Q 225.246 31.418 223.94 30.891 Q 222.633 30.365 221.873 29.156 Q 221.112 27.947 221.112 25.958 L 221.112 15.272 L 218.499 15.272 L 218.499 10.553 L 221.112 10.553 L 221.112 4.04 L 227.352 4.04 L 227.352 10.553 L 231.525 10.553 L 231.525 15.272 L 227.352 15.272 L 227.352 23.813 Q 227.352 24.827 227.859 25.275 Q 228.366 25.724 229.146 25.724 Q 229.809 25.724 230.57 25.49 Q 231.33 25.256 231.876 24.983 Z"/>
    </g>
  </g>
</svg>